<svg viewBox="0 0 258.25 178.73" xmlns="http://www.w3.org/2000/svg"><g fill="#ff6000"><path d="m116.67 74.49v-12.41h2.44v-2.35c1.13-.2 9.92-.26 14.93-.1v7.37h7.45v-2.44h4.93v-2.31l.13-.13a.21.21 0 0 1 .11 0h7.26v2.48h-4.92v2.4h-5v2.5h-2.46v2.5c-.84.13-1.65 0-2.5.09v7.31h-2.49v-7.4h-2.5v-2.5h-2.49v-7.4h-9.95v2.46h-2.47v5s0 3.26 0 4.89z"/><path d="m22.32 22.35v-4.93h-1.19-1.26v2.45h-2.49v2.5h-2.5v4.93h-2.47v-7.39h2.41c.11-1.67 0-3.3.06-5h-2.5v-4.91h2.46v-2.53h2.49v-2.47h2.46c.1 1.58 0 3.21.05 4.88h-2.43v5h2.4v-2.45h2.46v-2.43l1.23-.05h1.27v-2.44h2.48v7.34h-2.25a.75.75 0 0 0 -.16.12.22.22 0 0 0 -.05.11v7.27z"/><path d="m121.65 27.35c0-.82 0-1.61 0-2.4a.3.3 0 0 1 .08-.08.3.3 0 0 1 .11 0h7.08s.07 0 .14-.07v-22.26h2.49v32.2h-2.45v2.46h-9.82a83.55 83.55 0 0 1 -.09-9.84h2.46v7.36h5v-2.46h2.44v-4.91z"/><path d="m34.73 39.68v-4.88h-1.19-1.26v2.46h-2.5v2.46h-4.9a.24.24 0 0 1 -.05-.1v-7.3h2.44v-9.93h2.5v9.86h2.49v-2.45h2.46v-2.45h1.23 1.26v-2.46h2.49v9.82h-2.4c-.13 1.67 0 3.31-.08 5z"/><path d="m57.08 81.9v2.49c-1.63.08-3.26 0-4.93 0v-7.39h-2.5v2.41h-2.49v2.45h-2.44c-.13.84 0 1.66-.08 2.49h-2.4v-14.8h2.4v-7.44h2.46v9.89h-2.39v4.93h1.13 1.27v-2.41h2.49v-2.52h2.5v-2.43h2.41s0 0 0 0a.21.21 0 0 1 0 .1v12.19z"/><path d="m146.47 171.33h2.43c.12-.79 0-1.6.08-2.44h2.3l.11-.13a.21.21 0 0 0 0-.11v-4.73h2.43c.13-.83 0-1.64.09-2.52h2.47v4.89h2.43v-4.88h-2.44c0-.81 0-1.6 0-2.47h2.45v-4.94h2.48v22.24h-2.44v-7.35h-4.86c-.11.75 0 1.56-.07 2.4h-2.43v2.5h-2.5v2.48h-2.49z"/><path d="m186.24 74.45h12.36v-4.88h2.4c.12-.84 0-1.65.08-2.49h2.43v-2.49h7.49v12.35h-2.4v-4.94h-2.49v-2.45h-2.46v2.45c-.83.13-1.65 0-2.49.09v4.87h-14.92z"/><path d="m186.2 124.19v-2.49h2.46v-2.5h2.45v-2.43c.84-.15 1.66 0 2.5-.1v-2.39h5v4.89h-2.44v2.45h-4.92c-.13.84 0 1.65-.09 2.5h-2.39v5h2.41v2.5h7.42v2.38a94.67 94.67 0 0 1 -9.86.07v-2.4h-2.49v-5h-2.48v-2.46z"/><path d="m158.88 124.17v2.41c-.79.12-1.6 0-2.44.08v2.4h-5v-4.88h2.42v-5h2.49v-2.49h2.49v-2.46h4.89s0 0 0 0a.24.24 0 0 1 0 .1v12.22h2.46v2.45h-4.86s0 0 0 0a.21.21 0 0 1 0-.1c0-1.57 0-3.13 0-4.74-.86 0-1.67 0-2.49 0 0-.85 0-1.67 0-2.52h2.41v-2.42h-2.39v2.44c-.83 0-1.65 0-2.5 0v1.3s0 .79 0 1.18c.95.01 1.74.01 2.52.03z"/><path d="m176.26 161.44v-2.44h1.19 1.27v-5h2.49v14.79h2.49v-4.87h2.3l.12-.13a.2.2 0 0 0 0-.11c0-1.56 0-3.13 0-4.73h4.9v2.43h-2.41v5h-2.45v4.93h-2.5v2.5h-2.49v2.46h-2.42a.21.21 0 0 1 0-.11v-14.72z"/><path d="m173.78 72v-9.88c-1.62-.1-3.25 0-4.93-.06v2.44h-2.48v-4.88h7.39v-2.49h2.49v-9.9h2.49v9.87h7.43v2.45h-9.73c-.08.07-.11.09-.13.13a.16.16 0 0 0 -.05.1v12.22z"/><path d="m76.94 74.51v2.42c-.39 0-.79 0-1.18 0s-.82 0-1.27 0v2.47h-5v-4.89h2.51v-5h2.49v-2.42h7.33c.19 1 .26 9.93.09 14.85h-2.35a.73.73 0 0 1 -.09-.08.21.21 0 0 1 0-.11v-7.22c-.86 0-1.67 0-2.49 0 0-.85 0-1.67 0-2.52h2.41v-2.46h-2.39v2.44c-.83 0-1.65 0-2.5 0v1.3s0 .79 0 1.18c.87.02 1.66.02 2.44.04z"/><path d="m37.21 163.88v-2.44h2.45v-2.44h7.46v2.41h2.48v17.35h-2.44v-14.8h-2.45c-.13.74 0 1.55-.09 2.43h-4.92v-2.48z"/><path d="m171.3 9.93v-2.37l.08-.07a.25.25 0 0 1 .11 0h4.74v-2.49h17.41v4.9h-2.44c-.1-.88 0-1.69-.09-2.44h-9.88v1.29 1.23h-2.44v7.21a.15.15 0 0 1 0 .11.6.6 0 0 1 -.08.08h-2.36v-7.45z"/><path d="m253.24 89.35v-2.41h2.44v-9.94h-2.42v2.4h-2.48v-9.83h4.93v2.43h2.36c.19 1.11.25 13.49.09 17.39z"/><path d="m99.29 34.72v2.4a91.74 91.74 0 0 1 -9.89.09v-9.85c.75-.13 1.56 0 2.4-.08v-2.41h2.49v-2.47h5v4.89h-2.47v2.49h-2.49v2.45h-2.45v1.23 1.26z"/><path d="m218.47 22.35v14.9c-.85 0-1.66 0-2.5 0 0-.8 0-1.61 0-2.41h-4.9v2.39h4.92v2.38s-.05.06-.09.08a.21.21 0 0 1 -.1 0h-7.23v-2.42h-2.48v-5h9.91v-9.92z"/><path d="m119.11 163.88h-9.85c0-.39 0-.79 0-1.19v-1.26h-2.43v-2.5h2.38v-2.43c.84-.15 1.66 0 2.5-.1v-2.4h5v-2.46h9.93v2.38h-7.44v1.23s0 .82 0 1.27h-4.93v2.49h-2.46v2.5h7.35z"/><path d="m156.42 64.58c0-.81 0-1.59 0-2.37a.73.73 0 0 1 .08-.09.21.21 0 0 1 .11 0h7.21v5h-2.39v2.43c-.84.13-1.65 0-2.49.08v2.37h-5v5h-2.35a.23.23 0 0 1 -.09-.08.19.19 0 0 1 0-.1v-7.27h2.49v-5h2.5v2.41h2.43v-2.4z"/><path d="m186.24 74.49h-2.4a98 98 0 0 1 -.08-9.9h2.41v-2.48h9.9v4.89h-2.42v2.49h-7.41zm2.46-7.49h2.46c0-.45 0-.85 0-1.26s0-.79 0-1.14h-2.46z"/><path d="m139 116.75v4.88h1.19 1.26v-2.43h2.55v2.38h2.3a.77.77 0 0 1 .15.13.24.24 0 0 1 .05.1v7.23h-2.5v-4.89h-5v2.43h-2.46v2.45c-1.67.1-3.3 0-5 .06v-2.47h2.46v-5h2.5v-4.93z"/><path d="m191.18 32.24v-7.37h2.43v-2.48h7.39v12.33h-2.38c-.1-1.58 0-3.21-.05-4.88h-4.91c-.12.74 0 1.56-.08 2.4z"/><path d="m27.28 106.77v2.43c-1.62.12-3.24 0-5 .07v2.45h-2.42v7.46h-2.51v-4.93h-2.46v2.45h-5v-2.43c.79-.12 1.61 0 2.45-.08v-2.43h5v-2.49h2.49v-7.42h2.45c.11 1.58 0 3.21.06 4.92z"/><path d="m176.26 129.07v-4.79a.3.3 0 0 0 -.08-.08.16.16 0 0 0 -.1 0h-4.74v-2.44h-2.49v-7.45h4.9v-2.47h5v2.41h-2.43v2.49h-5v2.45h2.39c.15.83 0 1.65.1 2.49h4.76l.14.12a.2.2 0 0 1 0 .11v7.21z"/><path d="m104.3 114.24h2.41v2.41h2.49v-2.38h9.93v2.39h-7.37c-.12.83 0 1.65-.08 2.49h-2.43v2.5h-2.5v7.44h-2.45z"/><path d="m129.09 124.11v2.49c-1.63.07-3.27 0-4.91 0s-3.29 0-5 0v-7.44h2.39v-2.43c.84-.12 1.65 0 2.49-.08v-2.43h2.5v-2.46h2.48v4.89h-2.44v2.46h-2.43c-.16.83 0 1.65-.1 2.48h-2.41v1.23s0 .82 0 1.26z"/><path d="m32.25 129.12v2.35l-.08.09a.25.25 0 0 1 -.11 0h-7.21v-12.34h2.4v-5h5v5h-2.52v2.48h-2.42v7.42z"/><path d="m228.41 67h2.35a93.36 93.36 0 0 1 .09 9.93h-4.93v-2.44h-7.25a.21.21 0 0 0 -.11 0 .76.76 0 0 0 -.09.09v2.42h-2.47c-.11-1.62 0-3.24 0-4.94h12.42z"/><path d="m144 171.33v2.35l-.08.09a.21.21 0 0 1 -.1 0h-12.2v-7.42h2.38v-7.48h2.51v9.91h-2.41v2.51z"/><path d="m54.6 29.8v-2.44c-1.62-.11-3.25 0-4.92-.06v-2.45h4.88v-5h2.52v2.49h1.3l1.18-.05v-2.43h5v4.95h-7.45v5z"/><path d="m208.54 171.33v2.35l-.08.09a.21.21 0 0 1 -.11 0h-14.65v-2.45h2.39v-10h2.52v9.93z"/><path d="m114.19 86.91v-12.42h2.48v2.43h5v-2.43h4.94v2.44h-1.17c-.41 0-.81 0-1.31 0v2.47h-7.43v7.47z"/><path d="m101.77 32.24v-4.88c.79-.12 1.61 0 2.45-.07v-2.4h5v2.4h2.48v7.42h-2.44v-4.87h-4.92c-.14.74 0 1.56-.09 2.4z"/><path d="m245.83 74.51h-2.48v2.4h-2.49v-4.91h2.41v-2.42h5v9.84c-.35 0-.74 0-1.14 0h-1.26z"/><path d="m218.47 22.3v-14.81h1.19 1.27v-2.49h2.48v4.88h-2.25a1.46 1.46 0 0 0 -.16.12.16.16 0 0 0 0 .1v12.2z"/><path d="m39.7 166.36v4.85l-.09.08a.21.21 0 0 1 -.11 0h-4.74v2.42h-5v-4.89h2.44v-2.5h2.49v2.49h1.31 1.18v-2.44z"/><path d="m62 119.18v-7.31c1.06-.19 10.79-.26 14.9-.09v2.44h-12.37v4.78a.21.21 0 0 1 0 .11.6.6 0 0 1 -.08.08z"/><path d="m154 77h7.36c.11-.79 0-1.6.07-2.44h7.37v2.44h-4.9v2.48h-9.9z"/><path d="m76.94 114.22h2.44c.1.79 0 1.6.06 2.44h2.41v5h-2.39v2.52h-5v-2.49h2.48z"/><path d="m114.16 87v17.3h-2.4v-17.3z"/><path d="m7.42 22.39v4.87c-.79.12-1.61 0-2.45.08v4.9h-2.49v2.47h-2.48v-4.9h2.44v-5h2.49v-2.42z"/><path d="m141.5 111.69v-7.36h1.19s.81 0 1.26 0v-7.4h2.49v9.83h-2.44c-.14 1.67 0 3.3-.07 5z"/><path d="m71.94 27.35v4.92h-2.43v4.95h-2.45v-9.87z"/><path d="m91.8 74.49h2.41a.71.71 0 0 1 .07.09.21.21 0 0 1 0 .1v7.22h-2.41v2.49h-4.94v-2.39h2.42v-2.54h2.45z"/><path d="m94.32 166.41v9.84c-.79.11-1.6 0-2.45.07v2.4h-2.48v-4.9h2.44v-7.41z"/><path d="m250.75 91.9v2.32a.34.34 0 0 1 -.08.09.21.21 0 0 1 -.11 0h-14.65v-2.41z"/><path d="m62 173.81v-7.45h-5v-2.36l.08-.09a.21.21 0 0 1 .1 0h7.22v9.93z"/><path d="m228.38 67h-2.33-.05a.21.21 0 0 1 0-.11c0-4.87 0-9.73 0-14.65h2.46z"/><path d="m151.43 27.31h-2.43c0-.38 0-.77 0-1.16s0-.82 0-1.31h-2.48v-7.46h4.93v2.46h-2.45v2.48h2.45z"/><path d="m89.4 72h-2.4l-.09-.09a.2.2 0 0 1 0-.11c0-2.39 0-4.78 0-7.22h2.46v-2.47h2.46v4.89h-2.43z"/><path d="m211 161.4h2.35a91.31 91.31 0 0 1 .08 9.93h-4.92v-2.49h2.49z"/><path d="m54.6 149v-12.43h2.48v12.43z"/><path d="m54.57 29.84v12.34h-2.4v-12.34z"/><path d="m86.87 124.11v-7.37h1.19 1.27v-2.42h2.48v4.85h-2.39c-.13 1.68 0 3.31-.08 5z"/><path d="m119.15 168.89v2.4h-2.45v2.47h-7.45v-2.42h4.93v-2.45z"/><path d="m91.84 126.59v-2.39c.79-.11 1.61 0 2.45-.07v-2.43h2.49v-2.46h2.48v4.86h-2.39c-.14.84 0 1.65-.1 2.49z"/><path d="m74.46 2.48v-2.34a.73.73 0 0 1 .08-.09.16.16 0 0 1 .1 0h7.22v7.4h-2.43v-5z"/><path d="m32.25 49.66v-9.93h2.48v9.93z"/><path d="m32.22 49.7v9.86h-2.4v-9.86z"/><path d="m198.61 161.4v-7.4c1.62-.1 3.25 0 5-.06v2.5h-2.49v4.77a.21.21 0 0 1 0 .11l-.09.09z"/><path d="m203.58 156.43h4.94v2.45h2.48v2.52h-5v-2.5h-2.46z"/><path d="m176.26 161.4v4.94h-2.45v2.51h-2.51v-4.95h2.45v-2.5z"/><path d="m27.28 106.74v-2.41c1.63-.1 3.26 0 4.89 0s3.29 0 5 0v2.45z"/><path d="m173.78 27.31v-9.93h2.48v9.93z"/><path d="m96.84 161.36v-9.86h2.4v9.86z"/><path d="m57.08 166.41v4.87c-.79.11-1.61 0-2.45.07v2.4h-2.49v-4.89h2.45v-2.45z"/><path d="m86.87 124.15v2.48h5v2.46h-7.42v-4.94z"/><path d="m151.43 29.84v2.4h-1.19-1.24v2.43h-5v-2.38h2.44v-2.45z"/><path d="m62 129.12h-2.44v-9.94h2.44z"/><path d="m233.41 72h4.89v5c-1.59 0-3.22 0-4.89 0z"/><path d="m173.75 72.05v7.38h-2.4v-7.38z"/><path d="m14.87 126.63v7.45h-2.49v-7.45z"/><path d="m171.27 168.88v7.38h-2.4v-7.38z"/><path d="m59.56 129.12v7.45h-2.48v-7.45z"/><path d="m173.74 131.63v2.43h-7.36v-2.43z"/><path d="m64.53 9.93v-4.93h5v2.48h-2.53v2.45z"/><path d="m79.43 7.45v5h-5v-2.54h2.57v-2.46z"/><path d="m225.92 77v2.36l-.08.09a.2.2 0 0 1 -.11 0h-7.26v-2.45z"/><path d="m22.32 22.35v7.45h-2.49v-7.45z"/><path d="m62.08 74.45v-4.9h4.92v2.45h-2.44v2.48z"/><path d="m171.3 10v2.39c-.79.14-1.6 0-2.48.1v2.41h-2.44v-4.9z"/><path d="m72 27.28v-2.28a.34.34 0 0 1 .08-.09.16.16 0 0 1 .1-.05h7.21v2.45z"/><path d="m146.47 17.38h-5v-2.38c.79-.12 1.6 0 2.44-.08v-2.44h2.53z"/><path d="m14.87 126.63v-7.45h2.48v7.45z"/><path d="m82 27.34h2.4v7.39c-.76.08-1.56 0-2.4 0z"/><path d="m32.25 114.22v-2.44c1.62-.1 3.25 0 5 0v5h-2.52c0-.49 0-.89 0-1.3s0-.79 0-1.18z"/><path d="m173.78 34.76h-2.35a.73.73 0 0 1 -.09-.08.21.21 0 0 1 0-.11v-7.26h2.48z"/><path d="m19.83 29.8v7.45h-2.48v-7.45z"/><path d="m141.5 111.74v5h-2.5v-5z"/><path d="m96.81 161.4v5h-2.49v-5z"/><path d="m57.08 19.86v-5h2.48v5z"/><path d="m72 14.9v2.48h-5v-2.48z"/><path d="m183.71 29.8v2.48h-5v-2.48z"/><path d="m193.64 14.9v5h-2.48v-5z"/><path d="m17.32 37.28v4.9h-2.4v-4.9z"/><path d="m7.42 22.35v-5h2.48v5z"/><path d="m173.74 37.28v2.42h-4.87v-2.42z"/><path d="m136.57 158.87v-4.87h2.43v4.89z"/><path d="m37.21 116.7h2.44c.1 1.63 0 3.26.06 5h-2.5z"/><path d="m193.64 9.93h2.44c.1 1.63 0 3.26.06 5h-2.5z"/><path d="m188.68 22.35v5h-2.48v-5z"/><path d="m119.15 163.88h2.44c.1 1.62 0 3.25.06 5h-2.5z"/><path d="m54.56 149v4.9h-2.39v-4.9z"/><path d="m37.21 121.67v5h-2.48v-5z"/><path d="m12.35 134.12v4.88h-2.35v-4.9z"/><path d="m69.49 5v-2.52h5v2.52z"/><path d="m74.46 124.15v2.48h-5v-2.48z"/><path d="m62 74.49v5h-2.44v-5z"/><path d="m69.49 126.63v2.49h-5v-2.49z"/><path d="m34.73 126.63v2.49h-2.48v-2.49z"/><path d="m129.09 72v2.48h-2.49v-2.48z"/><path d="m191.16 19.86v2.49h-2.48v-2.49z"/><path d="m64.53 129.12v2.44h-1.18c-.41 0-.82 0-1.31 0v-2.48z"/><circle cx="175.02" cy="130.36" r="1.76"/><path d="m129.12 124.12v-2.43h2.4v2.43z"/><path d="m139 19.9v2.42h-2.39v-2.42z"/><circle cx="140.26" cy="18.62" r="1.76"/><path d="m9.87 116.74v2.42h-2.4v-2.42z"/><path d="m82 17.4h2.4v2.42c-.35 0-.74 0-1.14 0s-.81 0-1.26 0z"/><path d="m67 17.38v2.48h-2.47v-2.48z"/><path d="m151.43 29.8v-2.49h2.44v1.18s0 .82 0 1.31z"/><circle cx="184.95" cy="28.55" r="1.76"/><path d="m101.77 32.28v2.48h-2.48v-2.48z"/><path d="m178.75 32.28v2.48h-2.49v-2.48z"/><circle cx="11.14" cy="16.14" r="1.76"/><path d="m176.26 34.76v2.49h-2.48v-2.49z"/><path d="m238.3 64.54h-2.4v-2.43h1.14 1.26z"/><path d="m74.46 12.42v2.48h-2.46v-2.48z"/><path d="m59.56 14.9v-2.48h2.44v2.48z"/><path d="m34.73 166.36v-2.48h2.48v2.48z"/><path d="m253.24 89.39v2.48h-2.49v-2.48z"/><path d="m57.08 81.94v-2.48h2.48v2.48z"/><path d="m62 12.42v-2.49h2.49v2.49z"/><path d="m131.57 69.52v2.48h-2.48v-2.48z"/><path d="m144 171.33v-2.44h1.18 1.31v2.48z"/><path d="m89.36 72h2.48v2.48h-2.48z"/><path d="m220.94 168.89v2.4h-2.4v-2.4z"/><path d="m228.36 171.31h-2.36v-2.42h1.13 1.26z"/><path d="m235.81 171.31h-2.4v-2.43h1.15 1.25z"/><path d="m62 173.85v2.42h-2.4v-2.42z"/></g></svg>